<svg width="164" height="42" viewBox="0 0 164 42" fill="none" xmlns="http://www.w3.org/2000/svg">
<path d="M14.701 13.7963L5.34582 18.7572V24.0998H8.04843V20.2837L14.701 16.7651L18.3763 18.7572L12.0058 22.2871L14.6119 23.7182L24.0562 18.7572L14.701 13.7963Z" fill="#606062"/>
<path d="M8.04843 26.0208H5.34582V31.0772L14.701 36.1497L24.0562 31.0852L21.3833 29.4553L14.701 33.0062L8.04843 29.4553V26.0208Z" fill="#606062"/>
<path d="M2.67291 24.0998H0V15.6299L14.7901 7.68399L26.7291 14.0582V1.39709L29.402 0V24.0998H26.64V17.027L14.7901 10.6528L2.67291 17.2017V24.0998Z" fill="#81CAA8"/>
<path d="M2.67291 26.0208H0V34.1414L14.7901 42L29.402 34.1414V26.0208H26.7291V32.657L14.6119 39.0312L2.67291 32.5696V26.0208Z" fill="#81CAA8"/>
<path d="M35.019 27.9128V16.6958H42.7413V18.8162H37.5931V21.0175H42.1638V23.0893H37.5931V25.7924H43.1208V27.9128H35.019Z" fill="#81CAA8"/>
<path d="M47.4382 26.1809C47.8892 26.1809 48.2082 26.1377 48.3952 26.0514C48.5822 25.9651 48.6757 25.7978 48.6757 25.5496C48.6757 25.3554 48.5547 25.1881 48.3127 25.0479C48.0707 24.8968 47.7022 24.7295 47.2072 24.5461C46.8222 24.4058 46.4702 24.2601 46.1512 24.1091C45.8431 23.958 45.5791 23.78 45.3591 23.5749C45.1391 23.3591 44.9686 23.1055 44.8476 22.8142C44.7266 22.5228 44.6661 22.1721 44.6661 21.7621C44.6661 20.9636 44.9686 20.3323 45.5736 19.8683C46.1787 19.4043 47.0092 19.1723 48.0652 19.1723C48.5932 19.1723 49.0992 19.2209 49.5833 19.318C50.0673 19.4043 50.4523 19.5014 50.7383 19.6093L50.3093 21.4869C50.0233 21.3898 49.7098 21.3035 49.3687 21.2279C49.0387 21.1524 48.6647 21.1146 48.2467 21.1146C47.4767 21.1146 47.0917 21.3251 47.0917 21.7459C47.0917 21.843 47.1082 21.9293 47.1412 22.0049C47.1742 22.0804 47.2402 22.1559 47.3392 22.2315C47.4382 22.2962 47.5702 22.3718 47.7352 22.4581C47.9112 22.5336 48.1312 22.6199 48.3952 22.7171C48.9342 22.9113 49.3797 23.1055 49.7318 23.2998C50.0838 23.4832 50.3588 23.6882 50.5568 23.9148C50.7658 24.1306 50.9088 24.3734 50.9858 24.6432C51.0738 24.913 51.1178 25.2259 51.1178 25.582C51.1178 26.4237 50.7933 27.0603 50.1443 27.492C49.5062 27.9236 48.5987 28.1394 47.4217 28.1394C46.6517 28.1394 46.0081 28.0747 45.4911 27.9452C44.9851 27.8157 44.6331 27.7078 44.4351 27.6215L44.8476 25.6629C45.2656 25.8248 45.6946 25.9543 46.1346 26.0514C46.5747 26.1377 47.0092 26.1809 47.4382 26.1809Z" fill="#81CAA8"/>
<path d="M52.9586 17.2785L55.4172 16.8901V19.3989H58.3707V21.406H55.4172V24.4004C55.4172 24.9076 55.5052 25.3122 55.6812 25.6144C55.8682 25.9165 56.2367 26.0676 56.7867 26.0676C57.0507 26.0676 57.3202 26.046 57.5952 26.0028C57.8812 25.9489 58.1397 25.8787 58.3707 25.7924L58.7173 27.67C58.4203 27.7887 58.0902 27.8912 57.7272 27.9775C57.3642 28.0639 56.9187 28.107 56.3907 28.107C55.7197 28.107 55.1642 28.0207 54.7241 27.8481C54.2841 27.6646 53.9321 27.4164 53.6681 27.1035C53.4041 26.7798 53.2171 26.3913 53.1071 25.9381C53.0081 25.4849 52.9586 24.9831 52.9586 24.4328V17.2785Z" fill="#81CAA8"/>
<path d="M63.4531 26.2294C63.6951 26.2294 63.9261 26.2241 64.1461 26.2133C64.3661 26.2025 64.5421 26.1863 64.6741 26.1647V24.3357C64.5751 24.3141 64.4266 24.2925 64.2286 24.2709C64.0306 24.2493 63.8491 24.2386 63.6841 24.2386C63.4531 24.2386 63.2331 24.2547 63.0241 24.2871C62.8261 24.3087 62.6501 24.3573 62.4961 24.4328C62.3421 24.5083 62.2211 24.6108 62.1331 24.7403C62.0451 24.8698 62.0011 25.0317 62.0011 25.2259C62.0011 25.6036 62.1276 25.868 62.3806 26.019C62.6446 26.1593 63.0021 26.2294 63.4531 26.2294ZM63.2551 19.1723C63.9811 19.1723 64.5861 19.2532 65.0702 19.4151C65.5542 19.577 65.9392 19.809 66.2252 20.1111C66.5222 20.4132 66.7312 20.7801 66.8522 21.2118C66.9732 21.6434 67.0337 22.1236 67.0337 22.6523V27.67C66.6817 27.7455 66.1922 27.8319 65.5652 27.929C64.9382 28.0369 64.1791 28.0908 63.2881 28.0908C62.7271 28.0908 62.2156 28.0423 61.7536 27.9452C61.3025 27.8481 60.912 27.6916 60.582 27.4758C60.252 27.2492 59.999 26.9578 59.823 26.6017C59.647 26.2456 59.559 25.8086 59.559 25.2907C59.559 24.7943 59.658 24.3734 59.856 24.0281C60.065 23.6828 60.34 23.4077 60.681 23.2026C61.022 22.9976 61.4126 22.8519 61.8526 22.7656C62.2926 22.6685 62.7491 22.6199 63.2221 22.6199C63.5411 22.6199 63.8216 22.6361 64.0636 22.6685C64.3166 22.6901 64.5201 22.7225 64.6741 22.7656V22.539C64.6741 22.129 64.5476 21.7999 64.2946 21.5517C64.0416 21.3035 63.6016 21.1794 62.9746 21.1794C62.5566 21.1794 62.1441 21.2118 61.7371 21.2765C61.33 21.3305 60.978 21.4114 60.681 21.5193L60.3675 19.577C60.5105 19.5338 60.6865 19.4906 60.8955 19.4475C61.1155 19.3935 61.352 19.3504 61.6051 19.318C61.8581 19.2748 62.1221 19.2424 62.3971 19.2209C62.6831 19.1885 62.9691 19.1723 63.2551 19.1723Z" fill="#81CAA8"/>
<path d="M74.5735 21.5355C74.3535 21.4815 74.095 21.4276 73.798 21.3736C73.501 21.3089 73.1819 21.2765 72.8409 21.2765C72.6869 21.2765 72.4999 21.2927 72.2799 21.3251C72.0709 21.3466 71.9114 21.3736 71.8014 21.406V27.9128H69.3428V19.8521C69.7828 19.7011 70.2999 19.5608 70.8939 19.4313C71.4989 19.291 72.1699 19.2209 72.9069 19.2209C73.0389 19.2209 73.1984 19.2317 73.3855 19.2532C73.5725 19.264 73.7595 19.2856 73.9465 19.318C74.1335 19.3396 74.3205 19.3719 74.5075 19.4151C74.6945 19.4475 74.854 19.4906 74.986 19.5446L74.5735 21.5355Z" fill="#81CAA8"/>
<path d="M76.3074 17.2785L78.766 16.8901V19.3989H81.7196V21.406H78.766V24.4004C78.766 24.9076 78.854 25.3122 79.03 25.6144C79.217 25.9165 79.5855 26.0676 80.1355 26.0676C80.3995 26.0676 80.669 26.046 80.944 26.0028C81.2301 25.9489 81.4886 25.8787 81.7196 25.7924L82.0661 27.67C81.7691 27.7887 81.4391 27.8912 81.0761 27.9775C80.713 28.0639 80.2675 28.107 79.7395 28.107C79.0685 28.107 78.513 28.0207 78.073 27.8481C77.633 27.6646 77.2809 27.4164 77.0169 27.1035C76.7529 26.7798 76.5659 26.3913 76.4559 25.9381C76.3569 25.4849 76.3074 24.9831 76.3074 24.4328V17.2785Z" fill="#81CAA8"/>
<path d="M86.8019 26.2294C87.0439 26.2294 87.2749 26.2241 87.495 26.2133C87.715 26.2025 87.891 26.1863 88.023 26.1647V24.3357C87.924 24.3141 87.7755 24.2925 87.5775 24.2709C87.3795 24.2493 87.1979 24.2386 87.0329 24.2386C86.8019 24.2386 86.5819 24.2547 86.3729 24.2871C86.1749 24.3087 85.9989 24.3573 85.8449 24.4328C85.6909 24.5083 85.5699 24.6108 85.4819 24.7403C85.3939 24.8698 85.3499 25.0317 85.3499 25.2259C85.3499 25.6036 85.4764 25.868 85.7294 26.019C85.9934 26.1593 86.3509 26.2294 86.8019 26.2294ZM86.6039 19.1723C87.33 19.1723 87.935 19.2532 88.419 19.4151C88.903 19.577 89.288 19.809 89.574 20.1111C89.871 20.4132 90.08 20.7801 90.201 21.2118C90.322 21.6434 90.3825 22.1236 90.3825 22.6523V27.67C90.0305 27.7455 89.541 27.8319 88.914 27.929C88.287 28.0369 87.528 28.0908 86.6369 28.0908C86.0759 28.0908 85.5644 28.0423 85.1024 27.9452C84.6514 27.8481 84.2609 27.6916 83.9309 27.4758C83.6008 27.2492 83.3478 26.9578 83.1718 26.6017C82.9958 26.2456 82.9078 25.8086 82.9078 25.2907C82.9078 24.7943 83.0068 24.3734 83.2048 24.0281C83.4138 23.6828 83.6888 23.4077 84.0299 23.2026C84.3709 22.9976 84.7614 22.8519 85.2014 22.7656C85.6414 22.6685 86.0979 22.6199 86.5709 22.6199C86.8899 22.6199 87.1704 22.6361 87.4124 22.6685C87.6655 22.6901 87.869 22.7225 88.023 22.7656V22.539C88.023 22.129 87.8965 21.7999 87.6435 21.5517C87.3904 21.3035 86.9504 21.1794 86.3234 21.1794C85.9054 21.1794 85.4929 21.2118 85.0859 21.2765C84.6789 21.3305 84.3269 21.4114 84.0299 21.5193L83.7163 19.577C83.8593 19.5338 84.0354 19.4906 84.2444 19.4475C84.4644 19.3935 84.7009 19.3504 84.9539 19.318C85.2069 19.2748 85.4709 19.2424 85.7459 19.2209C86.0319 19.1885 86.3179 19.1723 86.6039 19.1723Z" fill="#81CAA8"/>
<path d="M92.6917 19.6903C93.1097 19.5716 93.6487 19.4637 94.3087 19.3665C94.9687 19.2586 95.6617 19.2047 96.3878 19.2047C97.1248 19.2047 97.7353 19.3018 98.2193 19.496C98.7143 19.6795 99.1048 19.9438 99.3909 20.2891C99.6769 20.6345 99.8804 21.0445 100.001 21.5193C100.122 21.9941 100.183 22.5228 100.183 23.1055V27.9128H97.7243V23.3969C97.7243 22.6199 97.6198 22.0696 97.4108 21.7459C97.2018 21.4222 96.8113 21.2603 96.2393 21.2603C96.0633 21.2603 95.8763 21.2711 95.6782 21.2927C95.4802 21.3035 95.3042 21.3197 95.1502 21.3412V27.9128H92.6917V19.6903Z" fill="#81CAA8"/>
<path d="M104.59 23.5911C104.59 24.3357 104.76 24.9346 105.101 25.3878C105.442 25.841 105.948 26.0676 106.619 26.0676C106.839 26.0676 107.043 26.0622 107.23 26.0514C107.417 26.0298 107.571 26.0082 107.692 25.9867V21.6002C107.538 21.5031 107.334 21.4222 107.081 21.3574C106.839 21.2927 106.592 21.2603 106.339 21.2603C105.173 21.2603 104.59 22.0372 104.59 23.5911ZM110.15 27.6376C109.93 27.7024 109.677 27.7671 109.391 27.8319C109.105 27.8858 108.803 27.9344 108.484 27.9775C108.176 28.0207 107.857 28.0531 107.527 28.0747C107.208 28.107 106.9 28.1232 106.603 28.1232C105.888 28.1232 105.25 28.0207 104.689 27.8157C104.128 27.6107 103.655 27.3193 103.27 26.9416C102.885 26.5532 102.588 26.0892 102.379 25.5496C102.181 24.9993 102.082 24.3842 102.082 23.7044C102.082 23.0138 102.17 22.3933 102.346 21.843C102.522 21.2819 102.775 20.8071 103.105 20.4186C103.435 20.0302 103.836 19.7334 104.309 19.5284C104.793 19.3234 105.343 19.2209 105.959 19.2209C106.3 19.2209 106.603 19.2532 106.867 19.318C107.142 19.3827 107.417 19.4744 107.692 19.5931V15.7409L110.15 15.3524V27.6376Z" fill="#81CAA8"/>
<path d="M120.657 23.6397C120.657 24.3087 120.558 24.9238 120.36 25.4849C120.162 26.0352 119.876 26.51 119.502 26.9093C119.128 27.2977 118.677 27.5999 118.149 27.8157C117.632 28.0315 117.049 28.1394 116.4 28.1394C115.762 28.1394 115.179 28.0315 114.65 27.8157C114.133 27.5999 113.688 27.2977 113.314 26.9093C112.94 26.51 112.648 26.0352 112.439 25.4849C112.23 24.9238 112.126 24.3087 112.126 23.6397C112.126 22.9706 112.23 22.361 112.439 21.8106C112.659 21.2603 112.956 20.7909 113.33 20.4025C113.715 20.014 114.166 19.7118 114.683 19.496C115.212 19.2802 115.784 19.1723 116.4 19.1723C117.027 19.1723 117.599 19.2802 118.116 19.496C118.644 19.7118 119.095 20.014 119.469 20.4025C119.843 20.7909 120.134 21.2603 120.343 21.8106C120.552 22.361 120.657 22.9706 120.657 23.6397ZM118.149 23.6397C118.149 22.8951 117.995 22.3124 117.687 21.8916C117.39 21.4599 116.961 21.2441 116.4 21.2441C115.839 21.2441 115.404 21.4599 115.096 21.8916C114.788 22.3124 114.634 22.8951 114.634 23.6397C114.634 24.3842 114.788 24.9777 115.096 25.4201C115.404 25.8518 115.839 26.0676 116.4 26.0676C116.961 26.0676 117.39 25.8518 117.687 25.4201C117.995 24.9777 118.149 24.3842 118.149 23.6397Z" fill="#81CAA8"/>
<path d="M129.436 25.8572C129.557 25.868 129.695 25.8787 129.849 25.8895C130.014 25.8895 130.206 25.8895 130.426 25.8895C131.713 25.8895 132.665 25.5712 133.281 24.9346C133.908 24.2979 134.221 23.4185 134.221 22.2962C134.221 21.12 133.924 20.2298 133.33 19.6255C132.736 19.0212 131.796 18.7191 130.509 18.7191C130.333 18.7191 130.151 18.7245 129.964 18.7353C129.777 18.7353 129.601 18.7461 129.436 18.7677V25.8572ZM136.878 22.2962C136.878 23.2674 136.724 24.1145 136.416 24.8374C136.108 25.5604 135.668 26.1593 135.096 26.6341C134.535 27.1089 133.847 27.465 133.033 27.7024C132.219 27.9398 131.306 28.0585 130.294 28.0585C129.832 28.0585 129.293 28.0369 128.677 27.9937C128.061 27.9614 127.456 27.8858 126.862 27.7671V16.8415C127.456 16.7336 128.072 16.6635 128.71 16.6311C129.359 16.5879 129.915 16.5663 130.377 16.5663C131.356 16.5663 132.241 16.6743 133.033 16.8901C133.836 17.1059 134.524 17.4458 135.096 17.9098C135.668 18.3738 136.108 18.9673 136.416 19.6903C136.724 20.4132 136.878 21.2819 136.878 22.2962Z" fill="#81CAA8"/>
<path d="M138.536 23.7206C138.536 22.9653 138.652 22.307 138.883 21.7459C139.125 21.174 139.438 20.6992 139.823 20.3215C140.208 19.9438 140.648 19.6579 141.143 19.4637C141.649 19.2694 142.166 19.1723 142.694 19.1723C143.927 19.1723 144.9 19.5446 145.615 20.2891C146.33 21.0229 146.688 22.1074 146.688 23.5426C146.688 23.6828 146.682 23.8393 146.671 24.012C146.66 24.1738 146.649 24.3195 146.638 24.449H141.061C141.116 24.9453 141.352 25.3392 141.77 25.6306C142.188 25.9219 142.749 26.0676 143.453 26.0676C143.905 26.0676 144.345 26.0298 144.774 25.9543C145.214 25.868 145.571 25.7654 145.846 25.6467L146.176 27.6053C146.044 27.67 145.868 27.7348 145.648 27.7995C145.428 27.8642 145.181 27.9182 144.906 27.9614C144.642 28.0153 144.356 28.0585 144.048 28.0908C143.74 28.1232 143.431 28.1394 143.123 28.1394C142.342 28.1394 141.66 28.0261 141.077 27.7995C140.505 27.5729 140.027 27.2654 139.642 26.8769C139.268 26.4776 138.987 26.0082 138.8 25.4687C138.624 24.9292 138.536 24.3465 138.536 23.7206ZM144.312 22.798C144.301 22.593 144.262 22.3933 144.196 22.1991C144.141 22.0049 144.048 21.8322 143.916 21.6812C143.795 21.5301 143.635 21.406 143.437 21.3089C143.25 21.2118 143.013 21.1632 142.727 21.1632C142.452 21.1632 142.216 21.2118 142.018 21.3089C141.82 21.3952 141.655 21.5139 141.523 21.665C141.391 21.816 141.286 21.9941 141.209 22.1991C141.143 22.3933 141.094 22.593 141.061 22.798H144.312Z" fill="#81CAA8"/>
<path d="M151.03 27.9128C150.469 26.8337 149.897 25.5712 149.314 24.1253C148.742 22.6793 148.198 21.1038 147.681 19.3989H150.288C150.398 19.8198 150.524 20.2784 150.667 20.7747C150.821 21.2603 150.975 21.7567 151.129 22.2639C151.294 22.7602 151.454 23.2458 151.608 23.7206C151.773 24.1954 151.932 24.627 152.086 25.0155C152.229 24.627 152.383 24.1954 152.548 23.7206C152.713 23.2458 152.873 22.7602 153.027 22.2639C153.192 21.7567 153.346 21.2603 153.489 20.7747C153.643 20.2784 153.775 19.8198 153.885 19.3989H156.426C155.909 21.1038 155.359 22.6793 154.776 24.1253C154.204 25.5712 153.637 26.8337 153.076 27.9128H151.03Z" fill="#81CAA8"/>
<path d="M160.32 26.1809C160.771 26.1809 161.09 26.1377 161.277 26.0514C161.464 25.9651 161.558 25.7978 161.558 25.5496C161.558 25.3554 161.437 25.1881 161.195 25.0479C160.953 24.8968 160.584 24.7295 160.089 24.5461C159.704 24.4058 159.352 24.2601 159.033 24.1091C158.725 23.958 158.461 23.78 158.241 23.5749C158.021 23.3591 157.851 23.1055 157.73 22.8142C157.609 22.5228 157.548 22.1721 157.548 21.7621C157.548 20.9636 157.851 20.3323 158.456 19.8683C159.061 19.4043 159.891 19.1723 160.947 19.1723C161.475 19.1723 161.981 19.2209 162.465 19.318C162.949 19.4043 163.334 19.5014 163.62 19.6093L163.191 21.4869C162.905 21.3898 162.592 21.3035 162.251 21.2279C161.921 21.1524 161.547 21.1146 161.129 21.1146C160.359 21.1146 159.974 21.3251 159.974 21.7459C159.974 21.843 159.99 21.9293 160.023 22.0049C160.056 22.0804 160.122 22.1559 160.221 22.2315C160.32 22.2962 160.452 22.3718 160.617 22.4581C160.793 22.5336 161.013 22.6199 161.277 22.7171C161.816 22.9113 162.262 23.1055 162.614 23.2998C162.966 23.4832 163.241 23.6882 163.439 23.9148C163.648 24.1306 163.791 24.3734 163.868 24.6432C163.956 24.913 164 25.2259 164 25.582C164 26.4237 163.675 27.0603 163.026 27.492C162.388 27.9236 161.481 28.1394 160.304 28.1394C159.534 28.1394 158.89 28.0747 158.373 27.9452C157.867 27.8157 157.515 27.7078 157.317 27.6215L157.73 25.6629C158.148 25.8248 158.577 25.9543 159.017 26.0514C159.457 26.1377 159.891 26.1809 160.32 26.1809Z" fill="#81CAA8"/>
</svg>
